<mxfile host="app.diagrams.net" agent="Mozilla/5.0 (Windows NT 10.0; Win64; x64) AppleWebKit/537.36 (KHTML, like Gecko) Chrome/131.0.0.0 Safari/537.36 Edg/131.0.0.0" version="25.0.3">
  <diagram name="Seite-1" id="Cbx5ee7jwu1wfmO4AC0Y">
    <mxGraphModel dx="2377" dy="1318" grid="1" gridSize="10" guides="1" tooltips="1" connect="1" arrows="1" fold="1" page="1" pageScale="1" pageWidth="827" pageHeight="1169" math="0" shadow="0">
      <root>
        <mxCell id="0" />
        <mxCell id="1" parent="0" />
        <mxCell id="OeUVK2nfak8-6AD2Hdpl-2" value="" style="rounded=0;whiteSpace=wrap;html=1;strokeColor=none;fillColor=#000000;" vertex="1" parent="1">
          <mxGeometry x="310" y="280" width="40" height="280" as="geometry" />
        </mxCell>
        <mxCell id="OeUVK2nfak8-6AD2Hdpl-3" value="" style="rounded=0;whiteSpace=wrap;html=1;strokeColor=none;fillColor=#000000;rotation=-90;" vertex="1" parent="1">
          <mxGeometry x="383.75" y="206.25" width="37.5" height="185" as="geometry" />
        </mxCell>
        <mxCell id="OeUVK2nfak8-6AD2Hdpl-4" value="" style="ellipse;whiteSpace=wrap;html=1;strokeColor=none;fillColor=#000000;" vertex="1" parent="1">
          <mxGeometry x="150" y="160" width="290" height="80" as="geometry" />
        </mxCell>
      </root>
    </mxGraphModel>
  </diagram>
</mxfile>
